<svg width="1440" height="1149" viewBox="0 0 1440 1149" fill="none" xmlns="http://www.w3.org/2000/svg">
<path fill-rule="evenodd" clip-rule="evenodd" d="M384 1109.1C-31.8175 943.901 108.453 1086.14 -90.9657 1011.91C-275.633 943.181 -252.247 841.023 -309.478 747.343C-365.567 655.534 -186.384 580.761 -140.353 492.072C-83.2844 382.119 -232.371 111.03 -7.93448 44.9806C212.942 -20.0212 221.979 50.3588 508 84.1409C746.402 112.299 999.162 -42.4846 1210.79 12.053C1461.68 76.7097 1548.62 -24.9096 1639.31 84.1408C1729.83 192.984 1782.79 1015.04 1653.28 1109.1C1543.04 1189.18 1490.87 1014.12 1304 1068C1101.21 1126.47 593.484 1192.33 384 1109.1Z" fill="url(#paint0_linear)"/>
<defs>
<linearGradient id="paint0_linear" x1="938.477" y1="1166.9" x2="983.882" y2="171.29" gradientUnits="userSpaceOnUse">
<stop offset="0.078125" stop-color="#279037"/>
<stop offset="1" stop-color="#9AC329"/>
</linearGradient>
</defs>
</svg>
