<svg width="1440" height="574" viewBox="0 0 1440 574" fill="none" xmlns="http://www.w3.org/2000/svg">
<path fill-rule="evenodd" clip-rule="evenodd" d="M825.038 37.0568C1262.65 109.173 1306.82 12.2532 1595.23 38.1416C1862.3 62.115 1774.45 156.167 1863.02 201.556C1949.82 246.038 1702 296.969 1643.9 346.492C1571.87 407.889 1804.75 540.314 1492.13 589.629C1184.47 638.161 1211.69 580.612 803.845 581.596C463.904 582.416 196.706 678.362 -91.5529 564.435C-402.362 441.596 -64.9303 490.379 -202.126 439.117C-339.061 387.952 -338.017 223.825 -162.112 166.022C-12.3685 116.817 -329.481 139.429 -84.1227 65.5503C196.607 -18.9788 527.556 -11.9669 825.038 37.0568Z" fill="url(#paint0_linear)"/>
<defs>
<linearGradient id="paint0_linear" x1="81.5382" y1="62.1408" x2="96.8709" y2="587.262" gradientUnits="userSpaceOnUse">
<stop stop-color="#9AC329"/>
<stop offset="0.765625" stop-color="#279037"/>
</linearGradient>
</defs>
</svg>
