<svg width="404" height="346" viewBox="0 0 404 346" fill="none" xmlns="http://www.w3.org/2000/svg">
<path d="M402.46 122.38C399.519 86.9993 386.196 51.3959 360.072 27.3556C333.949 3.3155 293.867 -6.84417 261.45 7.63783C212.2 29.6393 195.88 96.6688 146.819 119.105C120.172 131.292 88.7131 127.772 61.2641 138.043C24.2014 151.934 -0.518309 191.637 0.183511 231.218C0.885331 270.798 25.2485 308.295 59.5708 328.024C93.8932 347.753 179.448 349.981 217.135 337.839C243.523 336.062 269.296 329.053 292.949 317.22C316.603 305.388 337.668 288.968 354.915 268.916C372.161 248.865 385.248 225.582 393.41 200.425C401.572 175.267 404.649 148.737 402.46 122.38Z" fill="#E0E0E0"/>
</svg>
