<?xml version="1.0" encoding="utf-8"?>
<!-- Generator: Adobe Illustrator 24.1.2, SVG Export Plug-In . SVG Version: 6.00 Build 0)  -->
<svg version="1.1" id="Calque_1" xmlns="http://www.w3.org/2000/svg" xmlns:xlink="http://www.w3.org/1999/xlink" x="0px" y="0px"
	 viewBox="0 0 404 346" style="enable-background:new 0 0 404 346;" xml:space="preserve">
<style type="text/css">
	.st0{fill:#4B9021;}
</style>
<path class="st0" d="M402.5,122.4c-2.9-35.4-16.3-71-42.4-95c-26.1-24-66.2-34.2-98.6-19.7c-49.3,22-65.6,89-114.6,111.5
	c-26.6,12.2-58.1,8.7-85.6,18.9c-37.1,13.9-61.8,53.6-61.1,93.2c0.7,39.6,25.1,77.1,59.4,96.8c34.3,19.7,119.9,22,157.6,9.8
	c26.4-1.8,52.2-8.8,75.8-20.6c23.7-11.8,44.7-28.3,62-48.3c17.2-20.1,30.3-43.3,38.5-68.5C401.6,175.3,404.6,148.7,402.5,122.4z"/>
</svg>
