<?xml version="1.0" encoding="utf-8"?>
<!-- Generator: Adobe Illustrator 24.1.2, SVG Export Plug-In . SVG Version: 6.00 Build 0)  -->
<svg version="1.1" id="Calque_1" xmlns="http://www.w3.org/2000/svg" xmlns:xlink="http://www.w3.org/1999/xlink" x="0px" y="0px"
	 viewBox="0 0 1440 1149" style="enable-background:new 0 0 1440 1149;" xml:space="preserve">
<style type="text/css">
	.st0{fill-rule:evenodd;clip-rule:evenodd;fill:url(#SVGID_1_);}
</style>
<linearGradient id="SVGID_1_" gradientUnits="userSpaceOnUse" x1="693.017" y1="404.6488" x2="721.2355" y2="-214.1073" gradientTransform="matrix(1 0 0 1 0 306)">
	<stop  offset="7.812500e-02" style="stop-color:#279037"/>
	<stop  offset="1" style="stop-color:#9AC329"/>
</linearGradient>
<path class="st0" d="M384,680.1C-31.8,578.9,108.5,666-91,620.5c-184.6-42.1-161.2-104.8-218.5-162.2
	c-56.1-56.3,123.1-102.1,169.1-156.5C-83.3,234.4-232.4,68.2-8,27.7c220.9-39.8,230,3.3,516,24C746.4,69,999.2-26,1210.8,7.5
	c250.9,39.7,337.8-22.6,428.5,44.2c90.5,66.8,143.5,570.8,14,628.4c-110.2,49.1-162.4-58.2-349.3-25.2
	C1101.2,690.8,593.5,731.2,384,680.1z"/>
</svg>
