<?xml version="1.0" encoding="utf-8"?>
<!-- Generator: Adobe Illustrator 24.1.2, SVG Export Plug-In . SVG Version: 6.00 Build 0)  -->
<svg version="1.1" id="Calque_1" xmlns="http://www.w3.org/2000/svg" xmlns:xlink="http://www.w3.org/1999/xlink" x="0px" y="0px"
	 viewBox="0 0 368 368" style="enable-background:new 0 0 368 368;" xml:space="preserve">
<style type="text/css">
	.st0{fill-rule:evenodd;clip-rule:evenodd;fill:#4B9021;}
</style>
<path class="st0" d="M328,0c-12,29-21.4,57.8-12,96.5c5.8,24,48.4,78.3,51,102.5c3.2,29.8-17.5,60-45.2,92.2
	c-18.9,22-48.8,53.1-75.8,64.8c-30.6,13.3-58.5,15-89.9,7.3c-32.3-8-61-29.6-86.3-52.8c-24.4-22.3-45.3-48.2-57-78.4
	C1.1,202.2-3.8,169.8,3.5,140c7-28.6,22.1-56.4,41.5-78c18.7-20.8,41.7-40.7,70-46.3c28-5.6,51.5,1.3,80.5,1.6
	C235,17.6,290.5,13.8,328,0z"/>
</svg>
