<svg width="368" height="368" viewBox="0 0 368 368" fill="none" xmlns="http://www.w3.org/2000/svg">
<path fill-rule="evenodd" clip-rule="evenodd" d="M328 0.000166782C316 29.0002 306.598 57.8226 316 96.5C321.834 120.5 364.383 174.821 367 199C370.224 228.795 349.523 259 321.834 291.197C302.913 313.198 273.008 344.259 246 356C215.437 369.287 187.5 371 156.089 363.251C123.832 355.293 95.1076 333.654 69.7534 310.459C45.385 288.166 24.457 262.302 12.7246 232.097C1.13096 202.249 -3.75482 169.777 3.53851 139.989C10.5301 111.433 25.6358 83.6048 44.9999 62C63.6773 41.1614 86.7234 21.2882 114.973 15.6598C143.011 10.0737 166.47 17.0025 195.501 17.2362C234.996 17.5542 290.5 13.8405 328 0.000166782Z" fill="#E0E0E0"/>
</svg>
