<?xml version="1.0" encoding="utf-8"?>
<!-- Generator: Adobe Illustrator 24.1.2, SVG Export Plug-In . SVG Version: 6.00 Build 0)  -->
<svg version="1.1" id="Calque_1" xmlns="http://www.w3.org/2000/svg" xmlns:xlink="http://www.w3.org/1999/xlink" x="0px" y="0px"
	 viewBox="0 0 1441 1118" style="enable-background:new 0 0 1441 1118;" xml:space="preserve">
<style type="text/css">
	.st0{fill-rule:evenodd;clip-rule:evenodd;fill:url(#SVGID_1_);}
</style>
<linearGradient id="SVGID_1_" gradientUnits="userSpaceOnUse" x1="920.7281" y1="923.835" x2="968.0231" y2="476.8269" gradientTransform="matrix(1 0 0 -1 0 1115.8898)">
	<stop  offset="0" style="stop-color:#9AC329"/>
	<stop  offset="0.7656" style="stop-color:#279037"/>
</linearGradient>
<path class="st0" d="M955.7,167.3c511.2,43.6,552-44.4,886.7-34.8c309.9,8.8,218.5,96.3,325.1,132.4
	c104.5,35.4-175.5,92-237.3,138.6c-76.6,57.8,205.1,164.3-149.7,222.5c-349.2,57.3-341.6-66.7-802-6.5
	C573.7,672.3,289,712.2-54.6,624.6c-65.4-16.7,32.5-14.3-130.7-53.3c-162.9-39-178.6-184.5,17.9-243.9
	C0,276.9-362.8,311.7-87.9,234.8C226.5,146.8,608.2,137.7,955.7,167.3z"/>
</svg>
