<svg width="1441" height="854" viewBox="0 0 1441 854" fill="none" xmlns="http://www.w3.org/2000/svg">
<path fill-rule="evenodd" clip-rule="evenodd" d="M955.702 56.4282C1466.88 124.659 1507.74 -13.0654 1842.41 1.86943C2152.32 15.6995 2060.88 152.624 2167.51 209.169C2272 264.586 1991.98 353.309 1930.2 426.268C1853.6 516.721 2135.32 683.555 1780.54 774.752C1431.38 864.502 1438.98 670.344 978.515 764.497C573.68 847.276 288.972 909.823 -54.5887 772.693C-119.965 746.599 -22.0733 750.351 -185.284 689.194C-348.185 628.154 -363.891 400.294 -167.355 307.269C-0.0490883 228.08 -362.758 282.545 -87.9289 162.153C226.522 24.4046 608.211 10.0453 955.702 56.4282Z" fill="url(#paint0_linear)"/>
<defs>
<linearGradient id="paint0_linear" x1="141.847" y1="201.314" x2="209.676" y2="842.399" gradientUnits="userSpaceOnUse">
<stop stop-color="#9AC329"/>
<stop offset="0.765625" stop-color="#279037"/>
</linearGradient>
</defs>
</svg>
