<svg width="1441" height="452" viewBox="0 0 1441 452" fill="none" xmlns="http://www.w3.org/2000/svg">
<path d="M295.32 111.942V82.488H290.283V56.9076L278.936 51.7969H258.762L247.416 56.9076V82.488H241.08V114.47H238.535L239.807 137.495H238.535V246.273H239.807V247.564H277.637V248.828L310.43 247.564V248.828L422.675 247.564L418.884 209.18L406.265 195.085H376.017V163.103H379.808L363.398 149.035H329.359L323.049 156.701V94.0275H314.195L295.32 111.942ZM268.836 77.3773H262.526V64.5736H268.836V77.3773ZM286.492 77.3773H281.455V64.5736H286.492V77.3773ZM276.391 77.3773H271.354V64.5736H276.391V77.3773ZM258.735 77.3773H252.426V64.5736H258.735V77.3773ZM369.734 182.308H359.66V170.796H369.734V182.308ZM350.806 209.18V196.376H357.115V209.18H350.806ZM370.98 225.83H364.67V213.026H370.98V225.83ZM370.98 196.403V209.207H363.424V196.403H370.98ZM402.5 221.983H397.463V209.18H402.5V221.983ZM412.601 221.983H407.537V209.18H412.601V221.983ZM352.051 245.009V232.205H358.361V245.009H352.051ZM370.98 245.009H364.67V232.205H370.98V245.009ZM386.117 221.983V209.18H392.427V221.983H386.117ZM352.051 225.83V213.026H358.361V225.83H352.051ZM244.871 134.967V123.454H249.908V134.967H244.871ZM263.772 123.454V134.967H257.463V123.454H263.772ZM290.283 134.967H283.973V123.454H290.283V134.967ZM271.354 134.967V123.454H277.664V134.967H271.354ZM277.664 141.369V154.172H271.354V141.369H277.664ZM257.463 154.172V141.369H263.772V154.172H257.463ZM290.283 141.369V154.172H283.973V141.369H290.283ZM271.354 172.087V159.283H277.664V172.087H271.354ZM290.283 172.087H283.973V159.283H290.283V172.087ZM290.283 188.71H283.973V175.906H290.283V188.71ZM257.463 172.087V159.283H263.772V172.087H257.463ZM277.664 188.71H271.354V175.906H277.664V188.71ZM249.908 141.369V154.172H244.871V141.369H249.908ZM244.871 172.087V159.283H249.908V172.087H244.871ZM249.908 188.71H244.871V175.906H249.908V188.71ZM263.772 188.71H257.463V175.906H263.772V188.71ZM297.838 129.856H319.258V132.412H297.838V129.856ZM352.051 182.308H341.978V170.796H352.051V182.308ZM335.668 182.308H325.568V170.796H335.668V182.308ZM319.285 151.617V152.881H297.865V151.617H319.285ZM319.285 137.522V138.813H297.865V137.522H319.285ZM319.285 143.924V146.479H297.865V143.924H319.285ZM297.838 168.24V165.685H319.258V168.24H297.838ZM297.838 174.642V172.087H319.258V174.642H297.838ZM297.838 160.574V159.283H319.258V160.574H297.838ZM319.285 184.864V186.155H297.865V184.864H319.285ZM319.285 192.557V193.821H297.865V192.557H319.285ZM319.285 178.489V179.78H297.865V178.489H319.285ZM297.838 200.223V198.958H319.258V200.223H297.838ZM297.838 207.916V205.36H319.258V207.916H297.838ZM329.385 196.403V209.207H323.076V196.403H329.385ZM343.25 225.83H336.941V213.026H343.25V225.83ZM343.25 209.18H336.941V196.376H343.25V209.18ZM324.322 245.009V232.205H329.359V245.009H324.322ZM343.25 232.232V245.035H336.941V232.232H343.25ZM324.322 213.026H329.359V225.83H324.322V213.026ZM244.871 193.848H249.908V205.36H244.871V193.848ZM263.772 193.848V205.36H257.463V193.848H263.772ZM249.908 224.539H244.871V211.762H249.908V224.539ZM290.283 205.36H283.973V193.848H290.283V205.36ZM290.283 224.539H283.973V211.762H290.283V224.539ZM271.354 193.848H277.664V205.36H271.354V193.848ZM277.664 224.539H271.354V211.762H277.664V224.539ZM257.463 224.539V211.762H263.772V224.566H257.463V224.539Z" fill="#70B856"/>
<path d="M1448.1 143.927C1448.1 142.952 1448.07 142.302 1448.07 141.327C1430.93 137.715 1413.48 134.14 1396.38 130.528C1371.48 125.11 1346.95 120.018 1322.69 114.889C1297.8 109.472 1273.58 104.054 1249.33 98.2756C1225.4 92.8581 1201.18 87.0794 1176.93 81.6618C1176.93 81.3368 1176.93 81.0117 1176.93 81.0117C1177.29 63.4589 1177.29 45.9061 1177.64 28.6422C1177.64 28.3171 1177.32 28.3171 1177.32 28.3171C1176.68 27.667 1176 27.053 1175.68 26.4029C1175.35 26.4029 1175.35 26.4029 1175.03 26.4029C1174.07 26.0779 1173.1 25.4639 1172.1 25.1388C1171.78 24.8138 1171.78 24.8138 1171.46 24.8138C1164.66 23.6219 1158.9 24.7054 1155.07 27.7031C1155.07 28.0282 1155.07 28.3533 1155.07 28.3533C1155.25 57.933 1154.79 86.8627 1153.96 114.853C1153.64 115.178 1153.64 115.178 1153.64 115.503C1146.31 138.076 1138.98 160.938 1131.64 183.837C1124.6 206.771 1117.26 229.344 1109.93 251.917C1109.93 252.242 1109.93 252.242 1109.93 252.567V252.892H1110.25C1110.57 252.892 1110.9 252.892 1110.9 252.892V252.567C1118.55 229.994 1125.92 207.421 1133.25 184.559C1139.98 163.322 1146.7 142.049 1153.39 120.487C1154.03 121.463 1154.07 122.763 1154.11 124.713V125.038C1146.77 147.936 1139.44 170.473 1132.07 193.371C1125.99 213.308 1119.55 233.244 1112.79 252.892C1113.44 252.892 1113.76 252.892 1114.4 252.856C1114.4 252.856 1114.72 252.856 1115.05 252.856V252.531C1115.05 252.206 1115.05 251.881 1115.05 251.556C1122.38 228.983 1129.71 206.121 1137.08 183.548C1142.59 166.212 1147.78 149.237 1153.28 131.9C1153.61 132.876 1153.96 134.501 1153.68 136.451V136.776C1146.34 159.349 1139.01 182.211 1131.64 204.784C1126.78 220.784 1121.56 236.82 1116.37 252.856C1116.69 252.856 1117.01 252.856 1117.33 252.82C1117.66 252.82 1117.66 252.82 1117.98 252.82V252.495C1117.98 252.17 1117.98 252.17 1117.98 251.845C1125.63 229.597 1133 207.06 1140.33 184.162C1144.63 170.762 1148.88 157.038 1152.85 143.638C1152.64 149.489 1151.78 155.665 1149.64 161.589C1141.98 184.162 1134.61 206.699 1127.6 229.597C1125.17 237.434 1122.7 245.271 1119.95 252.82C1120.27 252.82 1120.59 252.82 1120.91 252.784C1121.23 252.784 1121.23 252.784 1121.56 252.784V252.459C1121.56 252.134 1121.56 252.134 1121.56 251.809C1128.89 229.561 1136.58 206.699 1143.91 184.125C1146.63 174.663 1149.71 165.164 1152.75 155.701C1153.07 156.677 1153.43 157.652 1153.14 159.277C1153.14 159.602 1153.14 159.602 1153.14 159.927C1145.81 182.175 1138.47 205.037 1131.11 227.935C1128.67 236.098 1125.92 244.621 1123.17 252.784C1123.49 252.784 1124.13 252.748 1124.45 252.748C1124.77 252.748 1124.77 252.748 1125.1 252.748V252.423C1125.1 252.098 1125.1 252.098 1125.1 251.772C1132.43 229.199 1139.8 206.662 1146.81 183.764C1148.63 177.877 1150.46 171.99 1152.32 165.778C1152.96 167.078 1153 168.379 1153.03 170.654C1152.71 170.654 1152.71 170.979 1153.03 170.979C1145.7 193.877 1138.37 216.414 1131.03 239.312C1129.82 243.574 1128.28 248.125 1127.06 252.712C1127.39 252.712 1127.71 252.712 1128.03 252.712C1128.35 252.712 1128.35 252.712 1128.67 252.712V252.386C1128.67 252.061 1128.67 251.736 1128.67 251.411C1136.01 228.838 1143.38 206.301 1150.39 183.403C1150.99 181.778 1151.6 180.117 1151.92 178.816C1152.6 180.117 1152.64 182.067 1152.35 184.342C1152.03 184.342 1152.03 184.667 1152.03 184.667C1145.02 207.204 1137.69 229.777 1130.32 252.35C1130 252.35 1130 252.675 1130 252.675C1130.32 252.675 1130.64 252.675 1131.28 252.675H1131.61V252.35C1138.55 231.583 1144.99 210.96 1151.71 190.049C1151.71 190.049 1151.71 190.049 1151.71 189.724C1152.39 190.699 1152.39 191.999 1152.43 193.949C1152.1 193.949 1152.1 194.274 1152.1 194.274C1145.99 213.561 1139.87 232.847 1133.79 252.134C1133.47 252.134 1133.47 252.459 1133.47 252.459C1134.11 252.459 1134.75 252.423 1135.08 252.423C1135.4 252.423 1135.4 252.423 1135.72 252.423V252.098C1135.72 251.772 1135.72 251.772 1135.72 251.447C1140.91 235.086 1146.09 218.437 1151.28 201.751V201.425C1151.92 202.726 1151.96 204.351 1152 206.626V206.951C1147.1 222.012 1142.19 236.712 1137.65 252.061V252.386C1137.97 252.386 1138.3 252.386 1138.62 252.386C1138.94 252.386 1138.94 252.386 1139.26 252.386V252.061C1139.26 251.736 1139.26 251.736 1139.26 251.411C1143.23 239.312 1147.2 226.888 1151.17 214.139V213.814C1151.5 214.464 1151.85 216.089 1151.57 217.714C1151.57 218.039 1151.57 218.039 1151.57 218.364C1147.88 229.163 1144.56 240.612 1141.19 252.025V252.35C1141.52 252.35 1141.84 252.35 1142.16 252.35C1142.48 252.35 1142.48 252.35 1142.8 252.35V252.025C1142.8 251.7 1142.8 251.7 1142.8 251.375C1145.56 242.888 1148.31 234.364 1150.74 225.227V224.901C1151.42 226.527 1151.46 228.477 1151.5 231.077V231.403C1149.03 238.265 1146.88 244.802 1144.77 251.989V252.314C1145.09 252.314 1145.41 252.314 1145.74 252.314C1145.74 252.314 1146.06 252.314 1146.38 252.314V251.989C1146.38 251.664 1146.38 251.664 1146.38 251.339C1147.6 247.402 1149.13 243.177 1150.35 238.59C1150.35 238.59 1150.35 238.265 1150.67 238.265C1151.39 243.466 1150.53 248.016 1148.31 251.953C1148.31 252.278 1148.31 252.278 1148.31 252.278C1157 252.134 1166.02 251.989 1175.03 251.809H1175.35V251.484C1175.28 248.558 1175.25 245.958 1175.21 243.357C1177.5 245.922 1179.83 248.486 1181.79 251.375C1182.11 251.7 1182.11 251.7 1182.11 251.7C1182.44 251.7 1183.08 251.7 1183.4 251.664C1183.72 251.664 1183.72 251.664 1184.05 251.664C1184.05 251.664 1184.05 251.664 1184.05 251.339C1180.43 247.836 1177.46 243.321 1175.78 238.156C1176.39 236.531 1176.36 234.256 1176.32 231.655C1176 231.33 1176 231.33 1176 231.005C1182.22 237.723 1188.48 244.441 1194.38 251.158C1194.71 251.158 1194.71 251.484 1194.71 251.484C1195.35 251.484 1195.99 251.447 1196.64 251.447C1196.96 251.447 1196.96 251.447 1197.28 251.447C1196.96 251.447 1196.96 251.447 1196.96 251.122C1189.73 243.429 1182.87 235.773 1175.96 227.43V227.105C1175.89 223.854 1175.85 220.604 1175.78 217.353C1187.55 228.513 1198.71 239.709 1210.16 250.906C1210.16 251.231 1210.16 251.231 1210.16 251.231C1210.8 251.231 1211.45 251.195 1212.41 251.195H1212.73C1212.73 251.195 1212.73 251.195 1212.73 250.87C1200.29 239.059 1188.16 226.924 1176.36 214.428C1176.36 214.103 1176.36 214.103 1176.36 213.777C1176.32 210.527 1176.25 207.276 1176.18 204.026C1192.2 218.039 1208.23 232.414 1223.93 246.752C1225.58 248.016 1226.86 249.605 1228.51 250.906C1228.83 250.906 1229.8 250.87 1230.44 250.87C1230.44 250.87 1230.44 250.87 1230.76 250.87C1228.47 248.955 1226.18 247.041 1223.89 244.802C1207.87 230.789 1192.17 216.089 1176.78 201.751C1176.78 201.425 1176.78 201.1 1176.78 201.1C1176.75 198.175 1176.68 195.25 1176.64 192.324C1193.31 205.687 1210.27 218.725 1226.9 232.089C1234.73 238.12 1242.24 244.513 1249.43 250.545C1250.4 250.508 1251.37 250.508 1252.01 250.508C1252.33 250.508 1252.33 250.508 1252.65 250.508C1243.85 243.502 1235.02 236.495 1226.22 229.524C1209.59 216.161 1192.92 202.473 1176.57 188.785V188.46C1176.53 186.184 1176.5 183.909 1176.46 181.958C1177.07 179.683 1178.36 179.647 1180.97 181.561C1189.13 188.568 1197.93 194.924 1206.72 201.281C1224.32 213.669 1241.92 226.021 1259.84 238.409C1265.07 242.201 1270.29 246.03 1275.19 250.183C1276.16 250.183 1277.12 250.147 1278.09 250.147C1278.41 250.147 1278.73 250.147 1278.73 250.147C1262.42 238.084 1245.79 226.346 1229.19 214.608C1211.59 201.895 1194.31 189.543 1176.71 176.83C1176.71 176.505 1176.71 176.505 1176.71 176.18C1176.68 173.254 1176.61 170.329 1176.57 167.728C1195.14 179.105 1213.34 190.807 1231.59 202.545C1250.15 214.572 1268.39 226.274 1286.6 238.012C1293.11 241.804 1299.62 245.922 1306.13 249.714C1307.1 249.714 1308.38 249.678 1309.35 249.678H1309.99C1302.52 244.621 1294.68 239.529 1286.56 234.798C1268 223.421 1249.47 211.719 1231.23 200.017C1212.98 188.315 1194.78 176.613 1176.53 164.55V164.225C1176.5 160.975 1176.43 158.049 1176.39 155.124C1195.89 165.525 1215.1 176.541 1233.95 187.268C1253.12 198.319 1272.33 209.046 1291.82 219.737C1309.06 229.199 1326.59 239.276 1343.83 249.064C1345.12 249.028 1346.41 249.028 1347.7 248.991C1348.02 248.991 1348.02 248.991 1348.02 248.991C1329.17 238.265 1310.32 227.863 1291.11 217.136C1271.61 206.41 1252.76 195.683 1233.59 184.956C1214.42 173.904 1195.21 162.853 1176.36 151.837V151.512C1176.32 149.887 1176.32 148.586 1176.28 147.286C1176.93 146.311 1177.21 144.686 1176.86 142.736H1177.18C1197 153.101 1216.81 163.178 1236.95 173.543C1256.77 183.295 1276.58 193.335 1297.05 203.376C1316.86 213.127 1336.97 222.843 1357.1 232.883C1367.8 237.904 1378.21 242.924 1388.58 248.269C1390.51 248.233 1392.45 248.197 1394.05 248.161C1394.38 248.161 1394.38 248.161 1394.7 248.161C1382.04 242.201 1369.37 235.917 1357.03 229.958C1336.57 219.917 1316.47 210.166 1296.65 200.45C1276.19 190.41 1256.37 180.333 1236.59 170.618C1216.45 160.252 1196.64 150.176 1176.82 140.135V139.81C1176.78 136.56 1176.71 133.634 1176.68 130.709C1197.1 139.774 1217.89 149.164 1238.63 158.23C1259.38 167.295 1280.16 176.36 1301.23 185.426C1322.3 194.166 1343.08 203.231 1364.15 212.297C1384.9 221.362 1406 230.427 1427.07 239.493C1433.22 241.985 1439.41 244.802 1445.56 247.294C1447.82 247.908 1449.11 247.547 1450.04 246.247V245.922C1428.97 236.856 1407.86 228.116 1386.79 219.051C1365.72 210.31 1344.62 201.57 1323.55 192.505C1302.8 183.764 1281.7 174.699 1260.95 165.634C1239.88 156.568 1219.1 147.178 1198.35 137.787C1193.49 135.584 1188.3 133.417 1182.79 131.864C1179.54 130.636 1177.57 128.686 1176.57 125.797C1176.86 124.171 1177.14 121.896 1176.78 119.296C1176.78 119.296 1176.78 119.296 1176.78 118.971C1198.18 127.386 1219.89 135.765 1241.28 143.855C1263.31 151.909 1285.03 160.324 1306.42 168.415C1328.13 176.83 1349.84 184.884 1371.56 192.974C1393.59 201.028 1415.62 209.118 1437.34 217.172C1441.52 218.4 1445.42 219.953 1449.64 221.506C1449.64 221.181 1449.64 221.181 1449.64 220.856C1449.64 220.206 1449.61 219.231 1449.61 218.256C1446.03 216.703 1442.49 215.439 1438.59 213.886C1416.55 206.157 1394.84 198.392 1372.84 190.663C1350.81 182.609 1329.1 174.518 1307.06 166.464C1285.35 158.049 1263.64 149.995 1242.24 141.905C1220.53 133.49 1198.82 125.436 1177.43 116.695V116.37C1177.39 113.445 1177.32 110.519 1177.29 107.919C1199.64 114.998 1221.96 122.438 1244.64 129.517C1267.32 136.921 1289.96 144.325 1312.32 151.729C1335 159.133 1357.64 166.212 1380.32 173.615C1402.96 180.369 1425.64 187.448 1448.28 194.852C1448.6 194.852 1448.93 194.852 1449.25 194.816V194.491C1449.25 193.516 1449.21 192.541 1449.21 191.891H1448.89C1426.21 184.487 1403.25 177.408 1380.57 170.329C1357.57 163.25 1334.93 156.171 1312.28 149.092C1289.64 141.688 1267.28 134.609 1244.61 127.205C1221.96 120.126 1199.61 112.397 1177.25 104.957V104.632C1177.18 101.382 1177.14 98.4562 1177.11 95.5307C1200.07 101.96 1223.39 108.713 1246.68 115.467C1269.65 122.221 1292.93 128.325 1316.86 134.718C1340.47 140.821 1363.76 147.214 1387.37 153.318C1407.75 158.808 1428.43 164.297 1448.82 170.112C1448.82 169.787 1448.82 169.787 1448.82 169.462C1448.82 168.487 1448.78 167.187 1448.75 165.886C1428.39 161.047 1408.33 155.882 1388.3 150.681C1364.69 144.252 1340.76 138.185 1317.15 131.756C1293.86 125.652 1270.25 119.26 1246.97 112.831C1223.36 106.402 1200.36 99.648 1177.39 92.8942C1177.39 92.5691 1177.39 92.5691 1177.39 92.2441C1177.36 89.3186 1177.29 86.7182 1177.25 83.7927C1201.18 89.5353 1225.43 95.6391 1249.65 101.057C1273.58 106.474 1297.83 112.253 1322.37 117.345C1347.27 122.438 1371.48 127.53 1396.06 132.984C1413.51 136.596 1430.97 140.496 1448.43 144.433L1448.1 143.927Z" fill="#70B856"/>
<path d="M1020.04 185.002L826.216 245.182L1006.5 150.887L822.822 239.479L987.364 119.053L819.461 233.844L964.837 90.7071L813.838 228.141L937.785 65.6825L809.312 223.612L908.47 45.2536L803.689 220.191L875.795 29.3533L796.934 217.943L840.857 18.0151L790.18 216.803L804.82 12.3124L783.392 215.662L767.62 11.1719L776.637 216.803L731.55 16.841L769.882 217.91L696.645 27.0722L764.259 220.191L663.97 41.832L757.504 223.612L634.655 63.435L752.979 227L605.374 86.1449L747.356 232.703L581.683 113.417L743.928 238.372L562.55 145.218L740.601 244.041L547.909 178.159L738.338 249.744L538.892 213.381L737.207 256.554L534.366 249.744L737.207 263.363L534.366 287.214L737.207 270.173L541.121 323.576L739.47 276.982L554.664 356.518L741.699 283.826L568.173 390.599L745.093 289.495L588.471 421.259L749.585 295.164L614.358 448.532L754.077 299.692L654.919 451.92H656.051L759.734 303.114L692.12 451.953H693.251L766.488 306.536L723.698 451.953H724.829L772.145 307.676L751.881 451.953H754.11L778.9 308.817L780.031 451.953H781.162L785.688 308.817L807.083 451.953H809.346L792.442 308.817L836.398 451.953H837.529L799.164 306.536L866.777 451.953H869.04L804.82 304.255L902.847 451.953H903.978L810.444 299.726L946.802 451.953L816.067 295.164L972.723 425.822L820.592 290.635L994.118 396.302L823.986 284.966L1011.05 364.501L826.216 278.123L1023.4 329.246L828.478 271.313L1031.32 292.916L829.61 264.504L1032.45 256.554L829.61 257.694L1029.06 220.191L828.478 250.851L1020.04 185.002Z" fill="#70B856"/>
<path d="M129.015 180.629V174.22H125.243V154.994H87.333V174.22L79.7351 165.254V128.094H84.7827L62.0423 107.602H50.6721H-10.0044V254.922H-6.20547H89.8302V253.656H202.31V0H128.988V180.629H129.015ZM168.2 24.3424H163.152V11.5249H168.2V24.3424ZM182.12 11.5249V24.3424H175.797V11.5249H182.12ZM194.765 24.3424H188.443V11.5249H194.765V24.3424ZM175.797 26.9005H182.12V38.4254H175.797V26.9005ZM182.12 55.0935H175.797V42.276H182.12V55.0935ZM194.765 38.4254H188.443V26.9005H194.765V38.4254ZM194.765 55.0935H188.443V42.276H194.765V55.0935ZM175.797 71.7346H182.12V83.2596H175.797V71.7346ZM196.014 71.7346V83.2596H189.691V71.7346H196.014ZM189.691 89.6683H196.014V102.486H189.691V89.6683ZM175.797 89.6683H182.12V102.486H175.797V89.6683ZM168.2 26.9005V38.4254H163.152V26.9005H168.2ZM168.2 42.276V55.0935H163.152V42.276H168.2ZM136.613 83.2596V71.7346H141.66V83.2596H136.613ZM154.306 71.7346V83.2596H149.258V71.7346H154.306ZM168.2 71.7346V83.2596H163.152V71.7346H168.2ZM149.258 102.486V89.6683H154.306V102.486H149.258V102.486ZM168.2 102.486H163.152V89.6683H168.2V102.486ZM136.613 102.486V89.6683H141.66V102.486H136.613V102.486ZM141.66 108.894V121.712H136.613V108.894H141.66ZM141.66 129.386V140.911H136.613V129.386H141.66ZM154.306 108.894V121.712H149.258V108.894H154.306ZM168.2 121.712H163.152V108.894H168.2V121.712ZM149.258 140.911V129.386H154.306V140.911H149.258ZM168.2 140.911H163.152V129.386H168.2V140.911ZM136.613 157.552V146.027H141.66V157.552H136.613ZM154.306 146.054V157.579H149.258V146.054H154.306ZM168.2 175.513H163.152V162.695H168.2V175.513ZM168.2 146.054V157.579H163.152V146.054H168.2ZM168.2 193.447H163.152V181.922H168.2V193.447ZM154.306 193.447H149.258V181.922H154.306V193.447ZM154.306 162.695V175.513H149.258V162.695H154.306V162.695ZM136.613 175.513V162.695H141.66V175.513H136.613ZM117.645 166.519H113.846V162.695H117.645V166.519ZM117.645 179.337H113.846V175.486H117.645V179.337ZM141.66 193.447H136.613V181.922H141.66V193.447ZM182.12 121.712H175.797V108.894H182.12V121.712ZM196.014 121.712H189.691V108.894H196.014V121.712ZM189.691 129.386H196.014V140.911H189.691V129.386ZM175.797 129.386H182.12V140.911H175.797V129.386ZM182.12 175.513H175.797V162.695H182.12V175.513ZM182.12 157.552H175.797V146.027H182.12V157.552ZM189.691 146.054H196.014V157.579H189.691V146.054ZM196.014 175.513H189.691V162.695H196.014V175.513ZM196.014 193.447H189.691V181.922H196.014V193.447ZM182.12 193.447H175.797V181.922H182.12V193.447ZM183.369 228.021H178.321V210.088H183.369V228.021ZM196.014 228.021H190.966V210.088H196.014V228.021ZM117.645 187.038V193.447H113.846V187.038H117.645ZM117.645 206.264H113.846V201.121H117.645V206.264ZM117.645 219.055H113.846V215.204H117.645V219.055ZM155.554 228.021H149.231V210.088H155.554V228.021ZM117.645 226.756V231.899H113.846V226.756H117.645ZM141.66 210.088V228.021H136.613V210.088H141.66ZM2.64097 135.795H8.96364V143.469H2.64097V135.795ZM31.704 143.469H25.3814V135.795H31.704V143.469ZM46.8732 135.795V143.469H40.5505V135.795H46.8732ZM20.3338 143.469H14.0112V135.795H20.3338V143.469V143.469ZM14.0112 156.287V147.32H20.3338V156.287H14.0112ZM31.704 147.32V156.287H25.3814V147.32H31.704ZM46.8732 147.32V156.287H40.5505V147.32H46.8732ZM8.96364 147.32V156.287H2.64097V147.32H8.96364ZM51.9207 143.469V135.795H58.2434V143.469H51.9207ZM69.6401 143.469H64.566V135.795H69.6401V143.469ZM102.476 166.519H98.6766V162.695H102.476V166.519ZM98.7032 179.337V175.486H102.502V179.337H98.7032ZM58.2434 147.32V156.287H51.9207V147.32H58.2434ZM64.566 147.32H69.6401V156.287H64.566V147.32ZM56.9948 184.48V192.154H50.6721V184.48H56.9948ZM36.7781 192.154V184.48H43.1008V192.154H36.7781ZM73.4125 184.48V192.154H67.0898V184.48H73.4125ZM73.4125 215.204V222.905H67.0898V215.204H73.4125ZM50.6721 222.905V215.204H56.9948V222.905H50.6721ZM36.7781 222.905V215.204H43.1008V222.905H36.7781ZM73.4125 199.855V207.53H67.0898V199.855H73.4125ZM50.6721 207.53V199.855H56.9948V207.53H50.6721ZM36.7781 207.53V199.855H43.1008V207.53H36.7781ZM102.476 206.264H98.6766V201.121H102.476V206.264ZM102.476 193.447H98.6766V187.038H102.476V193.447ZM102.476 215.204V219.055H98.6766V215.204H102.476ZM102.476 231.872H98.6766V226.729H102.476V231.872ZM67.0898 240.839V231.872H73.4125V240.839H67.0898ZM56.9948 231.872V240.839H50.6721V231.872H56.9948ZM36.7781 240.839V231.872H43.1008V240.839H36.7781ZM0.117206 192.154H-4.95688V184.48H0.09064V192.154H0.117206ZM15.2598 184.48V192.154H8.96364V184.48H15.2598ZM-4.95688 215.204H0.09064V222.905H-4.95688V215.204ZM15.2598 215.204V222.905H8.96364V215.204H15.2598ZM15.2598 199.855V207.53H8.96364V199.855H15.2598ZM29.1803 184.48V192.154H22.8576V184.48H29.1803ZM22.8576 222.905V215.204H29.1803V222.905H22.8576ZM29.1803 199.855V207.53H22.8576V199.855H29.1803ZM29.1803 231.872V240.839H22.8576V231.872H29.1803ZM8.96364 240.839V231.872H15.2863V240.839H8.96364ZM0.117206 240.839H-4.95688V231.872H0.09064V240.839H0.117206Z" fill="#70B856"/>
</svg>
