<svg width="21" height="20" viewBox="0 0 21 20" fill="none" xmlns="http://www.w3.org/2000/svg">
<path d="M18.6528 4.83976C15.7609 0.399756 9.8566 -0.920244 5.27775 1.83976C0.819388 4.59976 -0.626566 10.5998 2.26534 15.0398L2.50634 15.3998L1.54237 18.9998L5.15725 18.0398L5.51874 18.2798C7.08519 19.1198 8.77214 19.5998 10.4591 19.5998C12.2665 19.5998 14.074 19.1198 15.6404 18.1598C20.0988 15.2798 21.4242 9.39976 18.6528 4.83976ZM16.1224 14.0798C15.6404 14.7998 15.0379 15.2798 14.1945 15.3998C13.7125 15.3998 13.11 15.6398 10.7001 14.6798C8.65164 13.7198 6.96469 12.1598 5.75973 10.3598C5.03676 9.51976 4.67527 8.43976 4.55477 7.35976C4.55477 6.39976 4.91626 5.55976 5.51874 4.95976C5.75973 4.71976 6.00073 4.59976 6.24172 4.59976H6.8442C7.08519 4.59976 7.32618 4.59976 7.44668 5.07976C7.68767 5.67976 8.29015 7.11976 8.29015 7.23976C8.41065 7.35976 8.41065 7.59976 8.29015 7.71976C8.41065 7.95976 8.29015 8.19976 8.16966 8.31976C8.04916 8.43976 7.92866 8.67976 7.80817 8.79976C7.56718 8.91976 7.44668 9.15976 7.56718 9.39976C8.04916 10.1198 8.65164 10.8398 9.25412 11.4398C9.9771 12.0398 10.7001 12.5198 11.5436 12.8798C11.7845 12.9998 12.0255 12.9998 12.146 12.7598C12.2665 12.5198 12.869 11.9198 13.11 11.6798C13.351 11.4398 13.4715 11.4398 13.7125 11.5598L15.6404 12.5198C15.8814 12.6398 16.1224 12.7598 16.2429 12.8798C16.3634 13.2398 16.3634 13.7198 16.1224 14.0798Z" fill="white"/>
</svg>
